<?xml version="1.0" encoding="utf-8"?>
<!-- Generator: Adobe Illustrator 16.0.0, SVG Export Plug-In . SVG Version: 6.00 Build 0)  -->
<!DOCTYPE svg PUBLIC "-//W3C//DTD SVG 1.1//EN" "http://www.w3.org/Graphics/SVG/1.1/DTD/svg11.dtd">
<svg version="1.1" id="Ebene_1" xmlns="http://www.w3.org/2000/svg" xmlns:xlink="http://www.w3.org/1999/xlink" x="0px" y="0px"
	 width="400px" height="150px" viewBox="0 0 400 150" enable-background="new 0 0 400 150" xml:space="preserve">
<g>
	<path fill-rule="evenodd" clip-rule="evenodd" fill="#B51F1F" d="M56.846,137.356c-0.97,0.102-2.038-0.091-3.151-0.682
		c0.046,0.301,0.187,0.573,0.404,0.805c0.543,0.577,1.51,1,2.747,1.214c1.337,0.231,2.946,0.205,4.656-0.145
		c5.247-1.073,11.392-5.166,13.69-14.131c2.159-8.424,0.913-15.061-4.091-21.288c-5.096-6.342-14.069-12.32-27.261-19.314
		c-11.541-0.207-18.183,3.209-21.137,7.876c-1.235,1.951-1.829,4.126-1.869,6.341c-0.04,2.241,0.485,4.534,1.485,6.691
		c2.608,5.632,8.432,10.296,15.893,10.747c6.393,0.391,10.219-2.057,11.951-5.263c0.93-1.723,1.268-3.668,1.083-5.508
		c-0.184-1.823-0.882-3.533-2.023-4.807c-1.745-1.947-4.583-2.876-8.278-1.597v0.004c-0.361,0.124-0.413,0.261-0.359,0.417v0.006
		c0.09,0.261,0.249,0.569,0.417,0.897c0.675,1.316,1.478,2.881,0.499,4.741h-0.001c-0.754,1.435-2.013,2.075-3.358,2.187
		c-0.564,0.049-1.146-0.003-1.708-0.131c-0.547-0.125-1.079-0.324-1.559-0.575c-1.245-0.654-2.169-1.698-2.262-2.806h0.003
		l-0.036-0.253v-0.004c-0.135-0.929-0.349-2.408,1.106-4.96h-0.001c1.396-2.479,4.175-3.861,7.313-4.149
		c2.01-0.182,4.177,0.083,6.212,0.799c2.049,0.721,3.975,1.896,5.487,3.528c2.39,2.576,3.75,6.259,2.963,11.035
		c-0.74,4.49-3.081,7.619-6.325,9.582c-3.026,1.827-6.83,2.618-10.827,2.539c-3.944-0.075-8.088-0.999-11.852-2.602
		c-6.299-2.68-11.579-7.281-13.201-13.038c-0.56-1.989-0.961-4.078-1.118-6.182c-0.317-4.257,0.36-8.582,2.723-12.313
		c2.361-3.727,6.378-6.824,12.722-8.611c1.573-0.441,3.289-0.805,5.159-1.074c-9.368-4.526-17.214-10.999-22.577-18.686
		C4.626,50.424,1.727,40.817,2.83,30.715c0.424-3.885,1.642-7.328,3.426-10.296c2.801-4.66,6.99-8.141,11.695-10.322
		c4.694-2.176,9.913-3.06,14.778-2.528c3.185,0.348,6.225,1.302,8.875,2.895c6.655,3.99,13.765,7.251,18.448,8.247
		c1.408,0.298,2.557,0.386,3.354,0.218c0.515-0.108,0.832-0.338,0.896-0.709c0.072-0.418-0.038-1.009-0.358-1.794h-0.004
		c-0.089-0.22-0.161-0.44-0.216-0.658c-0.231-0.92-0.146-1.774,0.137-2.463c0.311-0.756,0.865-1.322,1.524-1.59l0,0.002
		c0.113-0.046,0.219-0.081,0.319-0.106l0,0.002c0.739-0.193,1.663-0.348,2.537-0.226c1.036,0.146,1.976,0.643,2.5,1.802
		c0.652,1.449,0.726,2.896,0.31,4.234c-0.482,1.55-1.627,2.925-3.292,3.956c-1.587,0.981-3.66,1.655-6.082,1.859
		c-3.857,0.327-8.654-0.526-13.836-3.214c2.271,5,2.649,9.124,1.833,12.412c-0.672,2.708-2.144,4.842-4.04,6.433
		c-1.869,1.568-4.151,2.602-6.478,3.135c-3.929,0.899-8.037,0.362-10.564-1.45l0,0c-1.505-1.076-3.111-2.702-3.687-4.768
		c-0.443-1.593-0.278-3.402,0.988-5.355c1.354-2.079,3.309-2.621,5.048-2.278c0.983,0.193,1.897,0.683,2.586,1.342
		c0.719,0.688,1.203,1.574,1.289,2.526c0.125,1.357-0.527,2.777-2.399,3.852h-0.004c-0.418,0.238-0.672,0.476-0.777,0.695v0.004
		c-0.046,0.096-0.054,0.19-0.027,0.275c0.043,0.136,0.161,0.285,0.346,0.433c0.467,0.375,1.25,0.665,2.304,0.778
		c5.479,0.586,8.77-0.964,10.322-3.474c1.066-1.724,1.349-3.929,0.981-6.222c-0.379-2.364-1.444-4.806-3.053-6.926
		c-3.27-4.307-8.792-7.258-15.372-5.449c-4.332,1.19-7.716,3.473-10.097,6.501c-2.915,3.709-4.338,8.553-4.169,13.899
		c0.171,5.415,1.973,11.344,5.51,17.145c5.256,8.623,14.333,16.943,27.569,22.879l0.008,0.004
		c11.147,5.1,19.485,10.162,25.422,15.696c6.016,5.608,9.579,11.693,11.105,18.771c2.754,12.735-2.917,22.566-10.468,28.153
		c-2.493,1.843-5.192,3.225-7.86,4.098c-2.697,0.88-5.374,1.242-7.789,1.04c-4.58-0.383-8.229-2.752-9.441-7.421
		c-0.855-3.282,0.263-6.251,2.208-8.254c0.862-0.89,1.893-1.589,2.988-2.044c1.113-0.461,2.299-0.666,3.453-0.56
		c2.086,0.191,4.032,1.378,5.235,3.887h0.004c0.661,1.388,0.64,2.957,0.118,4.3c-0.328,0.842-0.857,1.604-1.543,2.181
		C58.685,136.854,57.822,137.256,56.846,137.356L56.846,137.356z"/>
	<polygon fill="#B51F1F" points="125.497,37.327 113.189,80.198 101.608,80.198 94.851,55.345 88.095,80.198 76.432,80.198 
		64.366,37.327 76.271,37.327 83.188,64.917 89.14,37.327 100.643,37.327 107.238,64.917 113.833,37.327 125.497,37.327 	"/>
	<path fill="#B51F1F" d="M166.358,80.198h-10.536c-0.323-0.588-0.671-1.742-1.046-3.458c-2.628,2.895-6.81,4.344-12.548,4.344
		c-3.969,0-7.239-0.91-9.813-2.734c-3.003-2.146-4.504-5.254-4.504-9.331c0-5.844,2.292-9.866,6.878-12.065
		c2.104-1.018,6.392-1.931,12.868-2.735c4.585-0.589,6.877-1.822,6.877-3.7c0-1.661-0.688-2.989-2.065-3.981
		c-1.375-0.991-2.981-1.488-4.815-1.488c-1.889,0-3.508,0.511-4.858,1.529c-1.51,1.126-2.375,2.708-2.591,4.746h-10.847
		c0.267-3.486,1.086-6.3,2.453-8.446c1.368-2.144,3.58-3.807,6.636-4.987c2.841-1.072,6.059-1.609,9.652-1.609
		c12.173,0.108,18.258,5.927,18.258,17.455V80.198L166.358,80.198z M154.373,59.286c-1.126,0.913-3.11,1.637-5.951,2.172
		c-3.218,0.59-5.309,1.154-6.275,1.689c-1.984,1.02-2.975,2.789-2.975,5.309c0,3.218,1.688,4.826,5.067,4.826
		c1.555,0,3.164-0.361,4.826-1.086c1.662-0.724,2.923-1.594,3.782-2.614c1.126-1.394,1.688-3.458,1.688-6.194
		c0-0.482-0.027-1.179-0.081-2.091C154.4,60.386,154.373,59.716,154.373,59.286L154.373,59.286z"/>
	<polygon fill="#B51F1F" points="171.828,80.198 183.169,80.198 183.169,22.366 171.828,22.366 171.828,80.198 	"/>
	<polygon fill="#B51F1F" points="188.879,80.198 200.222,80.198 200.222,22.366 188.879,22.366 188.879,80.198 	"/>
	<polygon fill="#B51F1F" points="206.414,62.906 228.856,62.906 228.856,52.369 206.414,52.369 206.414,62.906 	"/>
	<path fill="#B51F1F" d="M273.98,80.198h-10.538c-0.321-0.588-0.67-1.742-1.045-3.458c-2.628,2.895-6.812,4.344-12.548,4.344
		c-3.969,0-7.24-0.91-9.813-2.734c-3.005-2.146-4.505-5.254-4.505-9.331c0-5.844,2.292-9.866,6.879-12.065
		c2.104-1.018,6.392-1.931,12.866-2.735c4.586-0.589,6.879-1.822,6.879-3.7c0-1.661-0.688-2.989-2.064-3.981
		c-1.376-0.991-2.981-1.488-4.816-1.488c-1.891,0-3.51,0.511-4.857,1.529c-1.511,1.126-2.375,2.708-2.59,4.746H236.98
		c0.267-3.486,1.085-6.3,2.452-8.446c1.367-2.144,3.58-3.807,6.637-4.987c2.842-1.072,6.059-1.609,9.652-1.609
		c12.173,0.108,18.259,5.927,18.259,17.455V80.198L273.98,80.198z M261.995,59.286c-1.126,0.913-3.11,1.637-5.952,2.172
		c-3.218,0.59-5.309,1.154-6.274,1.689c-1.983,1.02-2.976,2.789-2.976,5.309c0,3.218,1.689,4.826,5.067,4.826
		c1.555,0,3.164-0.361,4.827-1.086c1.66-0.724,2.921-1.594,3.779-2.614c1.126-1.394,1.689-3.458,1.689-6.194
		c0-0.482-0.027-1.179-0.081-2.091C262.021,60.386,261.995,59.716,261.995,59.286L261.995,59.286z"/>
	<path fill="#B51F1F" d="M304.144,47.865c-1.074-0.161-2.119-0.242-3.139-0.242c-6.916,0-10.376,3.432-10.376,10.296v22.279h-11.342
		V37.327h10.699v3.297c0,1.235,0.026,1.851,0.08,1.851c0.053-0.053,0.134-0.107,0.241-0.161c2.145-2.252,3.807-3.7,4.987-4.344
		c1.877-1.072,4.316-1.609,7.32-1.609c0.482,0,0.99,0,1.528,0V47.865L304.144,47.865z"/>
	<path fill="#B51F1F" d="M306.78,45.441v-7.974h5.813V26.156h11.272v11.312h6.911v7.974h-6.911V68.81c0,1.571,0.3,2.54,0.903,2.907
		c0.628,0.367,1.924,0.549,3.888,0.549c0.681,0,1.427-0.039,2.238-0.117v8.601c-2.173,0.079-4.06,0.117-5.656,0.117
		c-5.025,0-8.392-0.692-10.095-2.082c-1.7-1.386-2.551-3.782-2.551-7.186V45.441H306.78L306.78,45.441z"/>
	<polygon fill="#B51F1F" points="335.37,80.102 342.668,80.102 342.668,73.048 335.37,73.048 335.37,80.102 	"/>
	<path fill="#B51F1F" d="M370.353,80.198h-6.476v-3.188h-0.289c-1.602,2.64-3.958,3.962-7.065,3.962
		c-2.178,0-4.181-0.637-6.007-1.909c-1.828-1.271-3.141-2.906-3.941-4.903c-0.802-1.998-1.201-4.349-1.201-7.055
		c0-3.672,0.841-6.716,2.523-9.132c1.911-2.802,4.648-4.204,8.211-4.204c3.173,0,5.667,1.353,7.48,4.059v-12.37h6.765V80.198
		L370.353,80.198z M363.877,67.901c0-5.524-1.916-8.286-5.749-8.286c-3.865,0-5.797,2.633-5.797,7.9
		c0,2.474,0.594,4.432,1.787,5.877c1.063,1.286,2.383,1.927,3.962,1.927c1.577,0,2.898-0.626,3.962-1.878
		C363.265,72.06,363.877,70.214,363.877,67.901L363.877,67.901z"/>
	<path fill="#B51F1F" d="M397.841,69.135h-17.729c0.161,2.11,0.837,3.74,2.029,4.892c1.031,0.958,2.287,1.438,3.77,1.438
		c1.094,0,2.077-0.256,2.946-0.772c0.871-0.515,1.434-1.208,1.693-2.077h6.956c-0.772,2.608-2.159,4.63-4.155,6.062
		c-1.997,1.434-4.365,2.152-7.102,2.152c-8.602,0-12.902-4.679-12.902-14.036c0-3.954,1.088-7.114,3.262-9.477
		c2.176-2.363,5.227-3.545,9.157-3.545c7.922,0,11.947,4.958,12.075,14.874V69.135L397.841,69.135z M390.886,64.834
		c-0.161-1.74-0.747-3.108-1.763-4.107c-1.014-0.999-2.183-1.498-3.503-1.498c-1.289,0-2.4,0.466-3.335,1.4
		c-1.03,0.999-1.675,2.4-1.932,4.204H390.886L390.886,64.834z"/>
	<polygon fill="#1D1D1B" points="101.848,112.426 102.971,112.426 102.971,95.001 101.848,95.001 101.848,112.426 	"/>
	<path fill="#1D1D1B" d="M105.972,106.179c0-1.839,0.618-3.385,1.855-4.638c1.318-1.333,3.05-2.001,5.198-2.001
		c2.148,0,3.881,0.668,5.2,2.001c1.236,1.253,1.854,2.799,1.854,4.638s-0.618,3.385-1.854,4.638c-1.319,1.333-3.051,2.001-5.2,2.001
		c-2.148,0-3.88-0.668-5.198-2.001C106.59,109.563,105.972,108.018,105.972,106.179L105.972,106.179z M107.095,106.179
		c0,1.546,0.496,2.849,1.488,3.904c1.091,1.171,2.571,1.758,4.442,1.758c1.871,0,3.353-0.587,4.442-1.758
		c0.992-1.056,1.488-2.358,1.488-3.904s-0.496-2.849-1.488-3.906c-1.09-1.171-2.571-1.756-4.442-1.756
		c-1.871,0-3.351,0.585-4.442,1.756C107.591,103.33,107.095,104.633,107.095,106.179L107.095,106.179z"/>
	<polygon fill="#1D1D1B" points="127.841,112.426 121.666,99.93 122.936,99.93 128.402,111.305 133.87,99.93 135.139,99.93 
		128.964,112.426 127.841,112.426 	"/>
	<path fill="#1D1D1B" d="M150.588,106.422h-12.74c0.033,1.611,0.562,2.904,1.586,3.881c1.074,1.025,2.531,1.538,4.369,1.538
		c2.62,0,4.393-1.188,5.321-3.564h1.123c-1.009,3.028-3.197,4.541-6.566,4.541c-2.132,0-3.824-0.605-5.077-1.819
		c-1.253-1.21-1.879-2.851-1.879-4.918c0-1.627,0.496-3.041,1.489-4.245c1.269-1.531,3.1-2.295,5.492-2.295
		c2.132,0,3.815,0.643,5.052,1.928C149.945,102.721,150.556,104.372,150.588,106.422L150.588,106.422z M137.848,105.445h11.472
		c-0.229-1.643-0.879-2.895-1.953-3.758c-1.009-0.781-2.27-1.171-3.783-1.171c-1.579,0-2.868,0.441-3.869,1.329
		C138.714,102.734,138.091,103.933,137.848,105.445L137.848,105.445z"/>
	<path fill="#1D1D1B" d="M164.233,112.426l-6.322-12.496h1.268l5.614,11.253l5.15-11.253h1.269l-6.883,14.694
		c-0.374,0.781-0.748,1.333-1.123,1.659c-0.503,0.423-1.204,0.634-2.1,0.634h-1.561v-0.975h1.342c0.717,0,1.225-0.132,1.527-0.392
		c0.3-0.261,0.696-0.879,1.182-1.855L164.233,112.426L164.233,112.426z"/>
	<path fill="#1D1D1B" d="M172.433,106.179c0-1.839,0.618-3.385,1.854-4.638c1.318-1.333,3.05-2.001,5.199-2.001
		c2.148,0,3.88,0.668,5.199,2.001c1.236,1.253,1.854,2.799,1.854,4.638s-0.619,3.385-1.854,4.638
		c-1.319,1.333-3.051,2.001-5.199,2.001c-2.149,0-3.881-0.668-5.199-2.001C173.051,109.563,172.433,108.018,172.433,106.179
		L172.433,106.179z M173.556,106.179c0,1.546,0.495,2.849,1.488,3.904c1.091,1.171,2.571,1.758,4.443,1.758
		c1.87,0,3.351-0.587,4.44-1.758c0.993-1.056,1.49-2.358,1.49-3.904s-0.497-2.849-1.49-3.906c-1.089-1.171-2.57-1.756-4.44-1.756
		c-1.872,0-3.352,0.585-4.443,1.756C174.051,103.33,173.556,104.633,173.556,106.179L173.556,106.179z"/>
	<path fill="#1D1D1B" d="M201.623,99.93v12.496h-1.122v-2.489c-1.015,1.922-2.78,2.881-5.297,2.881
		c-2.483,0-4.167-0.675-5.049-2.026c-0.474-0.731-0.711-1.781-0.711-3.147V99.93h1.124v7.664c0,1.384,0.309,2.408,0.926,3.076
		c0.733,0.781,1.969,1.171,3.711,1.171c1.725,0,3.067-0.48,4.026-1.439c0.847-0.848,1.271-1.905,1.271-3.175V99.93H201.623
		L201.623,99.93z"/>
	<path fill="#1D1D1B" d="M205.261,112.426V99.93h1.122v2.953c0.853-2.228,2.592-3.343,5.216-3.343c0.278,0,0.589,0.048,0.934,0.146
		v1.123c-0.26-0.099-0.689-0.146-1.293-0.146c-1.53,0-2.741,0.512-3.635,1.538c-0.815,0.943-1.222,2.098-1.222,3.464v6.761H205.261
		L205.261,112.426z"/>
	<path fill="#1D1D1B" d="M221.076,112.426V95.001h1.122v7.418c1.014-1.92,2.778-2.879,5.296-2.879c2.483,0,4.167,0.676,5.049,2.024
		c0.475,0.733,0.711,1.783,0.711,3.149v7.712h-1.121v-7.663c0-1.382-0.311-2.407-0.928-3.075c-0.734-0.781-1.97-1.171-3.71-1.171
		c-1.725,0-3.068,0.479-4.027,1.439c-0.847,0.848-1.27,1.905-1.27,3.173v7.297H221.076L221.076,112.426z"/>
	<path fill="#1D1D1B" d="M236.159,106.179c0-1.839,0.618-3.385,1.854-4.638c1.32-1.333,3.051-2.001,5.198-2.001
		c2.149,0,3.881,0.668,5.201,2.001c1.235,1.253,1.854,2.799,1.854,4.638s-0.618,3.385-1.854,4.638
		c-1.32,1.333-3.052,2.001-5.201,2.001c-2.147,0-3.878-0.668-5.198-2.001C236.777,109.563,236.159,108.018,236.159,106.179
		L236.159,106.179z M237.283,106.179c0,1.546,0.495,2.849,1.488,3.904c1.089,1.171,2.569,1.758,4.44,1.758
		c1.872,0,3.353-0.587,4.444-1.758c0.992-1.056,1.487-2.358,1.487-3.904s-0.495-2.849-1.487-3.906
		c-1.092-1.171-2.572-1.756-4.444-1.756c-1.871,0-3.352,0.585-4.44,1.756C237.778,103.33,237.283,104.633,237.283,106.179
		L237.283,106.179z"/>
	<path fill="#1D1D1B" d="M253.171,112.426V99.93h1.122v2.123c0.49-0.795,1.162-1.415,2.02-1.854c0.856-0.438,1.79-0.658,2.8-0.658
		c2.562,0,4.161,0.967,4.798,2.904c0.912-1.938,2.527-2.904,4.844-2.904c3.474,0,5.212,1.473,5.212,4.417v8.469h-1.122v-8.102
		c0-1.123-0.311-2.017-0.928-2.685c-0.7-0.749-1.742-1.123-3.125-1.123c-1.514,0-2.669,0.37-3.466,1.109
		c-0.798,0.741-1.195,1.777-1.195,3.113v7.687h-1.123v-8.321c0-2.392-1.351-3.588-4.052-3.588c-1.399,0-2.513,0.382-3.343,1.146
		c-0.88,0.797-1.319,1.902-1.319,3.319v7.443H253.171L253.171,112.426z"/>
	<path fill="#1D1D1B" d="M290.732,106.422h-12.741c0.034,1.611,0.562,2.904,1.588,3.881c1.073,1.025,2.527,1.538,4.368,1.538
		c2.619,0,4.395-1.188,5.32-3.564h1.122c-1.008,3.028-3.196,4.541-6.564,4.541c-2.132,0-3.824-0.605-5.077-1.819
		c-1.253-1.21-1.879-2.851-1.879-4.918c0-1.627,0.496-3.041,1.489-4.245c1.269-1.531,3.1-2.295,5.491-2.295
		c2.132,0,3.814,0.643,5.053,1.928C290.09,102.721,290.699,104.372,290.732,106.422L290.732,106.422z M277.991,105.445h11.473
		c-0.228-1.643-0.879-2.895-1.953-3.758c-1.01-0.781-2.27-1.171-3.782-1.171c-1.579,0-2.868,0.441-3.87,1.329
		C278.858,102.734,278.235,103.933,277.991,105.445L277.991,105.445z"/>
</g>
</svg>
